<svg xmlns="http://www.w3.org/2000/svg" xmlns:xlink="http://www.w3.org/1999/xlink" width="200" zoomAndPan="magnify" viewBox="0 0 150 30.000001" height="40" preserveAspectRatio="xMidYMid meet" version="1.0"><defs><g/></defs><g fill="#3b3b35" fill-opacity="1"><g transform="translate(18.255079, 21.119005)"><g><path d="M 4.3125 2.953125 L 5.265625 0 C 3.910156 -0.457031 2.785156 -1.253906 1.890625 -2.390625 C 1.003906 -3.523438 0.5625 -4.800781 0.5625 -6.21875 C 0.5625 -8.039062 1.253906 -9.601562 2.640625 -10.90625 C 4.035156 -12.21875 5.648438 -12.875 7.484375 -12.875 C 8.304688 -12.875 9.066406 -12.773438 9.765625 -12.578125 C 10.472656 -12.378906 10.972656 -12.1875 11.265625 -12 L 11.671875 -11.703125 L 10.21875 -8.75 C 9.675781 -9.132812 8.972656 -9.328125 8.109375 -9.328125 C 7.296875 -9.328125 6.597656 -9.023438 6.015625 -8.421875 C 5.429688 -7.828125 5.140625 -7.109375 5.140625 -6.265625 C 5.140625 -5.398438 5.429688 -4.664062 6.015625 -4.0625 C 6.597656 -3.46875 7.296875 -3.171875 8.109375 -3.171875 C 8.503906 -3.171875 8.875 -3.21875 9.21875 -3.3125 C 9.570312 -3.414062 9.832031 -3.515625 10 -3.609375 L 10.21875 -3.75 L 11.671875 -0.75 C 11.554688 -0.675781 11.394531 -0.578125 11.1875 -0.453125 C 10.988281 -0.328125 10.523438 -0.160156 9.796875 0.046875 C 9.078125 0.253906 8.304688 0.359375 7.484375 0.359375 C 7.285156 0.359375 7.140625 0.351562 7.046875 0.34375 L 6.65625 1.53125 C 7.414062 1.53125 8.128906 1.75 8.796875 2.1875 C 9.460938 2.632812 9.796875 3.242188 9.796875 4.015625 C 9.796875 4.878906 9.488281 5.617188 8.875 6.234375 C 8.269531 6.859375 7.34375 7.171875 6.09375 7.171875 C 5.445312 7.171875 4.804688 7 4.171875 6.65625 C 3.546875 6.3125 3.082031 5.976562 2.78125 5.65625 L 2.34375 5.140625 L 4.09375 3.828125 C 4.15625 3.910156 4.25 4.015625 4.375 4.140625 C 4.5 4.273438 4.734375 4.445312 5.078125 4.65625 C 5.429688 4.863281 5.769531 4.96875 6.09375 4.96875 C 6.519531 4.96875 6.828125 4.875 7.015625 4.6875 C 7.210938 4.5 7.3125 4.273438 7.3125 4.015625 C 7.3125 3.660156 7.15625 3.390625 6.84375 3.203125 C 6.539062 3.015625 6.191406 2.921875 5.796875 2.921875 C 5.535156 2.921875 5.300781 2.9375 5.09375 2.96875 C 4.882812 3 4.75 3.035156 4.6875 3.078125 L 4.5625 3.140625 Z M 4.3125 2.953125 "/></g></g></g><g fill="#3b3b35" fill-opacity="1"><g transform="translate(27.927255, 21.119005)"><g><path d="M 2.3125 -1.546875 C 1.144531 -2.828125 0.5625 -4.390625 0.5625 -6.234375 C 0.5625 -8.085938 1.144531 -9.65625 2.3125 -10.9375 C 3.488281 -12.226562 4.976562 -12.875 6.78125 -12.875 C 8.4375 -12.875 9.800781 -12.351562 10.875 -11.3125 L 10.875 -12.5 L 15.1875 -12.5 L 15.1875 0 L 10.921875 0 L 10.921875 -1.40625 L 10.875 -1.40625 C 9.800781 -0.226562 8.4375 0.359375 6.78125 0.359375 C 4.976562 0.359375 3.488281 -0.273438 2.3125 -1.546875 Z M 5.984375 -8.359375 C 5.421875 -7.804688 5.140625 -7.097656 5.140625 -6.234375 C 5.140625 -5.378906 5.40625 -4.675781 5.9375 -4.125 C 6.476562 -3.582031 7.1875 -3.3125 8.0625 -3.3125 C 8.90625 -3.3125 9.597656 -3.585938 10.140625 -4.140625 C 10.691406 -4.691406 10.96875 -5.390625 10.96875 -6.234375 C 10.96875 -7.097656 10.6875 -7.804688 10.125 -8.359375 C 9.5625 -8.910156 8.875 -9.1875 8.0625 -9.1875 C 7.238281 -9.1875 6.546875 -8.910156 5.984375 -8.359375 Z M 5.984375 -8.359375 "/></g></g></g><g fill="#3b3b35" fill-opacity="1"><g transform="translate(42.277481, 21.119005)"><g/></g></g><g fill="#3b3b35" fill-opacity="1"><g transform="translate(46.638123, 21.119005)"><g><path d="M 14.328125 -10.953125 C 15.503906 -9.679688 16.09375 -8.117188 16.09375 -6.265625 C 16.09375 -4.410156 15.503906 -2.84375 14.328125 -1.5625 C 13.160156 -0.28125 11.675781 0.359375 9.875 0.359375 C 8.21875 0.359375 6.851562 -0.15625 5.78125 -1.1875 L 5.78125 6.34375 L 1.46875 6.34375 L 1.46875 -12.5 L 5.734375 -12.5 L 5.734375 -11.09375 L 5.78125 -11.09375 C 6.851562 -12.28125 8.21875 -12.875 9.875 -12.875 C 11.675781 -12.875 13.160156 -12.234375 14.328125 -10.953125 Z M 10.65625 -4.140625 C 11.21875 -4.691406 11.5 -5.398438 11.5 -6.265625 C 11.5 -7.128906 11.226562 -7.832031 10.6875 -8.375 C 10.15625 -8.914062 9.453125 -9.1875 8.578125 -9.1875 C 7.734375 -9.1875 7.035156 -8.910156 6.484375 -8.359375 C 5.941406 -7.804688 5.671875 -7.109375 5.671875 -6.265625 C 5.671875 -5.398438 5.953125 -4.691406 6.515625 -4.140625 C 7.078125 -3.585938 7.765625 -3.3125 8.578125 -3.3125 C 9.410156 -3.3125 10.101562 -3.585938 10.65625 -4.140625 Z M 10.65625 -4.140625 "/></g></g></g><g fill="#3b3b35" fill-opacity="1"><g transform="translate(60.988349, 21.119005)"><g><path d="M 2.640625 -1.484375 C 1.253906 -2.722656 0.5625 -4.304688 0.5625 -6.234375 C 0.5625 -8.171875 1.285156 -9.757812 2.734375 -11 C 4.179688 -12.25 5.96875 -12.875 8.09375 -12.875 C 10.1875 -12.875 11.953125 -12.242188 13.390625 -10.984375 C 14.828125 -9.734375 15.546875 -8.148438 15.546875 -6.234375 C 15.546875 -4.316406 14.84375 -2.738281 13.4375 -1.5 C 12.03125 -0.257812 10.25 0.359375 8.09375 0.359375 C 5.851562 0.359375 4.035156 -0.253906 2.640625 -1.484375 Z M 5.984375 -8.359375 C 5.421875 -7.804688 5.140625 -7.097656 5.140625 -6.234375 C 5.140625 -5.378906 5.40625 -4.675781 5.9375 -4.125 C 6.476562 -3.582031 7.1875 -3.3125 8.0625 -3.3125 C 8.90625 -3.3125 9.597656 -3.585938 10.140625 -4.140625 C 10.691406 -4.691406 10.96875 -5.390625 10.96875 -6.234375 C 10.96875 -7.097656 10.6875 -7.804688 10.125 -8.359375 C 9.5625 -8.910156 8.875 -9.1875 8.0625 -9.1875 C 7.238281 -9.1875 6.546875 -8.910156 5.984375 -8.359375 Z M 5.984375 -8.359375 "/></g></g></g><g fill="#3b3b35" fill-opacity="1"><g transform="translate(74.802546, 21.119005)"><g><path d="M 2.1875 -12.5 L 2.1875 -17.15625 L 6.515625 -17.15625 L 6.515625 -12.5 L 9.140625 -12.5 L 9.140625 -9.21875 L 6.515625 -9.21875 L 6.515625 -5.234375 C 6.515625 -4.085938 6.835938 -3.515625 7.484375 -3.515625 C 7.648438 -3.515625 7.820312 -3.546875 8 -3.609375 C 8.175781 -3.671875 8.3125 -3.734375 8.40625 -3.796875 L 8.5625 -3.90625 L 9.625 -0.421875 C 8.695312 0.0976562 7.640625 0.359375 6.453125 0.359375 C 5.640625 0.359375 4.941406 0.21875 4.359375 -0.0625 C 3.773438 -0.34375 3.332031 -0.722656 3.03125 -1.203125 C 2.726562 -1.679688 2.507812 -2.1875 2.375 -2.71875 C 2.25 -3.25 2.1875 -3.8125 2.1875 -4.40625 L 2.1875 -9.21875 L 0.390625 -9.21875 L 0.390625 -12.5 Z M 2.1875 -12.5 "/></g></g></g><g fill="#3b3b35" fill-opacity="1"><g transform="translate(82.135691, 21.119005)"><g><path d="M 2.3125 -1.546875 C 1.144531 -2.828125 0.5625 -4.390625 0.5625 -6.234375 C 0.5625 -8.085938 1.144531 -9.65625 2.3125 -10.9375 C 3.488281 -12.226562 4.976562 -12.875 6.78125 -12.875 C 8.4375 -12.875 9.800781 -12.351562 10.875 -11.3125 L 10.875 -12.5 L 15.1875 -12.5 L 15.1875 0 L 10.921875 0 L 10.921875 -1.40625 L 10.875 -1.40625 C 9.800781 -0.226562 8.4375 0.359375 6.78125 0.359375 C 4.976562 0.359375 3.488281 -0.273438 2.3125 -1.546875 Z M 5.984375 -8.359375 C 5.421875 -7.804688 5.140625 -7.097656 5.140625 -6.234375 C 5.140625 -5.378906 5.40625 -4.675781 5.9375 -4.125 C 6.476562 -3.582031 7.1875 -3.3125 8.0625 -3.3125 C 8.90625 -3.3125 9.597656 -3.585938 10.140625 -4.140625 C 10.691406 -4.691406 10.96875 -5.390625 10.96875 -6.234375 C 10.96875 -7.097656 10.6875 -7.804688 10.125 -8.359375 C 9.5625 -8.910156 8.875 -9.1875 8.0625 -9.1875 C 7.238281 -9.1875 6.546875 -8.910156 5.984375 -8.359375 Z M 5.984375 -8.359375 "/></g></g></g><g fill="#3b3b35" fill-opacity="1"><g transform="translate(96.485915, 21.119005)"><g><path d="M 0.90625 3.078125 L 4.4375 1.34375 C 5.082031 2.414062 6.210938 2.953125 7.828125 2.953125 C 8.578125 2.953125 9.269531 2.710938 9.90625 2.234375 C 10.550781 1.753906 10.875 1.019531 10.875 0.03125 L 10.875 -0.90625 C 10.101562 -0.0625 8.738281 0.359375 6.78125 0.359375 C 4.976562 0.359375 3.488281 -0.273438 2.3125 -1.546875 C 1.144531 -2.828125 0.5625 -4.390625 0.5625 -6.234375 C 0.5625 -8.085938 1.144531 -9.65625 2.3125 -10.9375 C 3.488281 -12.226562 4.976562 -12.875 6.78125 -12.875 C 8.382812 -12.875 9.722656 -12.378906 10.796875 -11.390625 L 10.875 -11.390625 L 10.875 -12.5 L 15.1875 -12.5 L 15.1875 0.34375 C 15.1875 2.375 14.507812 3.941406 13.15625 5.046875 C 11.8125 6.148438 10.035156 6.703125 7.828125 6.703125 C 4.253906 6.703125 1.945312 5.492188 0.90625 3.078125 Z M 5.984375 -8.359375 C 5.421875 -7.804688 5.140625 -7.097656 5.140625 -6.234375 C 5.140625 -5.378906 5.40625 -4.675781 5.9375 -4.125 C 6.476562 -3.582031 7.1875 -3.3125 8.0625 -3.3125 C 8.90625 -3.3125 9.597656 -3.585938 10.140625 -4.140625 C 10.691406 -4.691406 10.96875 -5.390625 10.96875 -6.234375 C 10.96875 -7.097656 10.6875 -7.804688 10.125 -8.359375 C 9.5625 -8.910156 8.875 -9.1875 8.0625 -9.1875 C 7.238281 -9.1875 6.546875 -8.910156 5.984375 -8.359375 Z M 5.984375 -8.359375 "/></g></g></g><g fill="#3b3b35" fill-opacity="1"><g transform="translate(110.836138, 21.119005)"><g><path d="M 14.109375 -5.65625 L 5.046875 -5.65625 C 5.046875 -4.78125 5.328125 -4.128906 5.890625 -3.703125 C 6.460938 -3.285156 7.082031 -3.078125 7.75 -3.078125 C 8.445312 -3.078125 9 -3.164062 9.40625 -3.34375 C 9.8125 -3.53125 10.273438 -3.898438 10.796875 -4.453125 L 13.921875 -2.90625 C 12.617188 -0.726562 10.457031 0.359375 7.4375 0.359375 C 5.550781 0.359375 3.929688 -0.285156 2.578125 -1.578125 C 1.234375 -2.867188 0.5625 -4.421875 0.5625 -6.234375 C 0.5625 -8.054688 1.234375 -9.617188 2.578125 -10.921875 C 3.929688 -12.222656 5.550781 -12.875 7.4375 -12.875 C 9.414062 -12.875 11.023438 -12.300781 12.265625 -11.15625 C 13.515625 -10.007812 14.140625 -8.367188 14.140625 -6.234375 C 14.140625 -5.941406 14.128906 -5.75 14.109375 -5.65625 Z M 5.171875 -8.046875 L 9.921875 -8.046875 C 9.828125 -8.691406 9.570312 -9.1875 9.15625 -9.53125 C 8.738281 -9.882812 8.207031 -10.0625 7.5625 -10.0625 C 6.84375 -10.0625 6.269531 -9.875 5.84375 -9.5 C 5.425781 -9.132812 5.203125 -8.648438 5.171875 -8.046875 Z M 5.171875 -8.046875 "/></g></g></g><g fill="#3b3b35" fill-opacity="1"><g transform="translate(123.237178, 21.119005)"><g><path d="M 4.234375 -5.21875 C 5.015625 -5.21875 5.675781 -4.941406 6.21875 -4.390625 C 6.769531 -3.847656 7.046875 -3.1875 7.046875 -2.40625 C 7.046875 -1.644531 6.769531 -0.992188 6.21875 -0.453125 C 5.675781 0.0859375 5.015625 0.359375 4.234375 0.359375 C 3.472656 0.359375 2.820312 0.0859375 2.28125 -0.453125 C 1.738281 -0.992188 1.46875 -1.644531 1.46875 -2.40625 C 1.46875 -3.1875 1.738281 -3.847656 2.28125 -4.390625 C 2.820312 -4.941406 3.472656 -5.21875 4.234375 -5.21875 Z M 4.234375 -5.21875 "/></g></g></g></svg>