<svg xmlns="http://www.w3.org/2000/svg" xmlns:xlink="http://www.w3.org/1999/xlink" width="500" zoomAndPan="magnify" viewBox="0 0 375 374.999991" height="500" preserveAspectRatio="xMidYMid meet" version="1.0"><defs><filter x="0%" y="0%" width="100%" height="100%" id="66e4c3a1f3"><feColorMatrix values="0 0 0 0 1 0 0 0 0 1 0 0 0 0 1 0 0 0 1 0" color-interpolation-filters="sRGB"/></filter><mask id="92c70118ac"><g filter="url(#66e4c3a1f3)"><rect x="-37.5" width="450" fill="#000000" y="-37.499999" height="449.999989" fill-opacity="0.3882"/></g></mask><clipPath id="be3958a305"><path d="M 0.441406 1 L 349 1 L 349 328 L 0.441406 328 Z M 0.441406 1 " clip-rule="nonzero"/></clipPath><clipPath id="d8f2cfcdb4"><rect x="0" width="350" y="0" height="329"/></clipPath></defs><g mask="url(#92c70118ac)"><g transform="matrix(1, 0, 0, 1, 19, 21)"><g clip-path="url(#d8f2cfcdb4)"><g clip-path="url(#be3958a305)"><path fill="#778a3b" d="M 208.339844 2.597656 C 194.785156 5.359375 186.308594 8.132812 177.839844 16.027344 C 150.726562 40.117188 148.464844 62.628906 127.574219 95.800781 C 101.023438 138.851562 88.597656 143.984375 54.144531 174.007812 C 49.625 177.558594 46.234375 181.121094 42.289062 184.671875 C 10.09375 212.714844 -18.714844 266.820312 17.433594 301.578125 C 24.777344 308.289062 32.679688 313.820312 43.417969 319.34375 C 53.582031 324.476562 63.1875 330.402344 77.871094 326.457031 C 88.042969 323.695312 97.640625 316.972656 106.683594 312.242188 C 116.289062 307.109375 125.886719 301.578125 137.746094 299.207031 C 149.039062 296.835938 165.425781 295.652344 177.285156 298.023438 C 201.574219 302.765625 236.027344 333.570312 278.957031 313.03125 C 338.265625 284.597656 311.714844 238.777344 332.050781 191.777344 C 339.394531 174.398438 355.773438 147.9375 345.601562 123.445312 C 339.386719 107.648438 329.222656 102.90625 323.007812 97.375 C 319.617188 94.214844 326.398438 95.402344 315.664062 89.871094 C 311.140625 87.5 298.152344 74.863281 293.632812 67.75 C 290.808594 63.410156 289.113281 58.667969 286.851562 52.746094 C 278.941406 29.835938 265.386719 19.960938 244.488281 8.511719 C 232.628906 2.191406 223.585938 -0.179688 208.339844 2.589844 Z M 208.339844 2.597656 " fill-opacity="1" fill-rule="evenodd"/></g></g></g></g></svg>