<svg xmlns="http://www.w3.org/2000/svg" xmlns:xlink="http://www.w3.org/1999/xlink" width="500" zoomAndPan="magnify" viewBox="0 0 375 374.999991" height="500" preserveAspectRatio="xMidYMid meet" version="1.0"><defs><clipPath id="588c81c703"><path d="M 2 81 L 366.992188 81 L 366.992188 373 L 2 373 Z M 2 81 " clip-rule="nonzero"/></clipPath><clipPath id="a72b2f02b9"><path d="M 74.183594 31 L 292.730469 31 L 292.730469 305 L 74.183594 305 Z M 74.183594 31 " clip-rule="nonzero"/></clipPath></defs><g clip-path="url(#588c81c703)"><path fill="#b84d24" d="M 366.910156 201.371094 C 366.8125 182.988281 364.027344 164.503906 357.957031 147.125 C 352.0625 130.246094 343.492188 113.351562 329.59375 101.648438 C 316.007812 90.210938 298.882812 84.335938 281.128906 84.691406 C 277.195312 84.769531 273.253906 85.160156 269.324219 85.636719 C 268.34375 85.460938 267.320312 85.453125 266.292969 85.628906 C 263.433594 86.128906 260.554688 86.457031 257.664062 86.695312 C 254.683594 86.902344 251.683594 87.042969 248.683594 87.207031 C 233.035156 81.933594 216.054688 78.941406 200.160156 83.964844 C 182.855469 89.4375 170.261719 103.757812 163.546875 120.21875 C 158.269531 133.167969 157.375 147.417969 152.210938 160.402344 C 151.742188 161.574219 151.234375 162.722656 150.6875 163.855469 C 150.671875 163.855469 149.96875 165.183594 149.757812 165.542969 C 149.285156 166.347656 148.777344 167.125 148.253906 167.894531 C 147.371094 169.183594 146.386719 170.402344 145.351562 171.570312 C 145.109375 171.816406 144.859375 172.054688 144.605469 172.296875 C 143.867188 173 143.089844 173.660156 142.300781 174.304688 C 141.597656 174.875 140.867188 175.40625 140.132812 175.925781 C 139.953125 176.054688 139.769531 176.179688 139.585938 176.300781 C 139.445312 176.390625 139.304688 176.476562 139.207031 176.535156 C 137.527344 177.53125 135.753906 178.398438 134.007812 179.269531 C 130.605469 180.96875 127.125 182.503906 123.605469 183.945312 C 120.042969 185.410156 116.433594 186.75 112.800781 188.03125 C 112.492188 188.140625 112.179688 188.246094 111.867188 188.355469 C 111.84375 188.363281 111.820312 188.371094 111.789062 188.382812 C 110.90625 188.683594 110.019531 188.976562 109.136719 189.269531 C 107.210938 189.90625 105.28125 190.527344 103.351562 191.144531 C 95.902344 193.515625 88.414062 195.761719 80.980469 198.1875 C 65.96875 203.089844 50.894531 208.714844 37.703125 217.542969 C 22.996094 227.382812 10.171875 241.183594 5.015625 258.402344 C 0.00390625 275.132812 4.4375 292.667969 12.449219 307.644531 C 20.261719 322.253906 32.140625 334.890625 45.023438 345.179688 C 60.019531 357.15625 77.257812 365.851562 95.992188 370.152344 C 114.460938 374.394531 134.128906 373.28125 152.273438 368.050781 C 161.914062 365.269531 171.226562 361.503906 180.105469 356.839844 C 189.101562 352.113281 197.511719 346.390625 205.726562 340.429688 C 212.644531 335.410156 219.390625 330.160156 226.320312 325.160156 C 226.375 325.121094 226.425781 325.085938 226.480469 325.046875 C 226.683594 324.902344 227.085938 324.617188 227.292969 324.472656 C 228.105469 323.90625 228.921875 323.347656 229.742188 322.789062 C 231.503906 321.59375 233.285156 320.429688 235.085938 319.292969 C 238.519531 317.128906 242.046875 315.113281 245.667969 313.28125 C 246.539062 312.839844 247.414062 312.417969 248.296875 312 C 248.671875 311.824219 249.859375 311.304688 250.300781 311.105469 C 251.9375 310.433594 253.597656 309.816406 255.273438 309.234375 C 258.910156 307.976562 262.640625 306.992188 266.414062 306.230469 C 266.429688 306.242188 268.445312 305.894531 268.972656 305.820312 C 270.0625 305.667969 271.152344 305.542969 272.246094 305.429688 C 274.597656 305.1875 276.957031 305.078125 279.320312 304.96875 C 283.105469 304.792969 286.886719 304.449219 290.640625 303.9375 C 305.40625 301.921875 319.820312 297.167969 331.972656 288.382812 C 344.121094 279.597656 352.929688 266.902344 358.351562 253.046875 C 364.707031 236.796875 367 218.734375 366.910156 201.371094 Z M 366.910156 201.371094 " fill-opacity="1" fill-rule="nonzero"/></g><g clip-path="url(#a72b2f02b9)"><path fill="#000000" d="M 166.808594 31.5625 C 164.464844 31.5625 162.121094 31.9375 159.835938 32.722656 C 152.414062 34.980469 146.871094 41.226562 144.902344 48.53125 C 143.933594 47.851562 142.429688 47.011719 140.519531 47.082031 C 138.320312 47.171875 136.714844 48.402344 135.800781 49.183594 C 134.890625 49.953125 134.5 50.269531 134.023438 50.371094 C 133.546875 50.488281 133.285156 50.386719 132.199219 50.070312 C 131.128906 49.734375 129.089844 49.300781 127.078125 50.15625 C 125.066406 51.023438 123.953125 52.648438 123.285156 53.707031 C 122.605469 54.75 122.257812 55.285156 121.722656 55.632812 C 121.203125 55.980469 120.929688 55.96875 119.8125 56.054688 C 118.683594 56.140625 116.675781 56.488281 115.054688 57.953125 C 113.445312 59.429688 112.839844 61.257812 112.464844 62.488281 C 112.40625 62.707031 112.347656 62.878906 112.289062 63.066406 C 111.101562 62.183594 109.785156 61.445312 108.339844 60.980469 C 110.234375 58.867188 112.042969 56.371094 113.519531 53.820312 C 115.457031 50.460938 116.472656 47.621094 116.574219 44.996094 C 116.675781 42.386719 115.53125 39.792969 113.402344 38.578125 C 111.292969 37.34375 108.46875 37.648438 106.257812 39.039062 C 104.765625 39.980469 103.40625 41.519531 102.074219 43.34375 C 101.265625 41.300781 100.351562 39.503906 99.179688 38.226562 C 97.835938 36.777344 95.984375 36.113281 94.144531 36.027344 C 93.785156 35.878906 93.394531 35.824219 93.015625 35.835938 C 92.800781 35.835938 92.597656 35.867188 92.394531 35.925781 C 92.277344 35.953125 92.21875 36.082031 92.105469 36.113281 L 92.074219 36.027344 C 91.628906 36.214844 91.238281 36.503906 90.933594 36.878906 C 89.382812 37.878906 88.109375 39.386719 87.675781 41.316406 C 87.300781 43.011719 87.402344 45.011719 87.734375 47.199219 C 85.664062 46.285156 83.710938 45.632812 81.949219 45.5625 C 79.34375 45.460938 76.738281 46.621094 75.523438 48.734375 C 74.292969 50.851562 74.597656 53.691406 75.984375 55.894531 C 77.390625 58.097656 79.691406 60.066406 83.046875 62.011719 C 85.59375 63.472656 88.429688 64.734375 91.121094 65.617188 C 86.925781 70.242188 87.113281 76.546875 87.488281 81.300781 C 87.488281 81.328125 87.488281 81.355469 87.488281 81.386719 C 88.589844 91.691406 91.699219 101.472656 95 110.921875 C 94.390625 111.472656 94.042969 112.238281 94.042969 113.050781 L 94.042969 301.40625 C 94.042969 302.972656 95.316406 304.246094 96.878906 304.246094 L 290.046875 304.246094 C 291.625 304.246094 292.882812 302.972656 292.882812 301.40625 L 292.882812 203.351562 C 292.941406 202.773438 292.824219 202.191406 292.550781 201.683594 L 282.347656 182.644531 L 282.347656 170.238281 C 282.347656 168.671875 281.089844 167.398438 279.527344 167.398438 L 247.171875 167.398438 L 247.171875 113.050781 C 247.171875 111.964844 246.550781 110.980469 245.582031 110.5 L 241.125 108.296875 C 241.285156 107.472656 241.3125 106.734375 241.3125 106.167969 C 241.3125 105.039062 241.300781 104.589844 241.601562 103.847656 C 241.90625 103.109375 242.339844 102.660156 243.136719 101.804688 C 243.945312 100.9375 245.117188 99.589844 245.625 97.617188 C 246.144531 95.644531 245.710938 93.847656 245.378906 92.835938 C 245.046875 91.820312 244.917969 91.53125 245.003906 90.835938 C 245.089844 90.140625 245.378906 89.574219 245.945312 88.546875 C 246.492188 87.5 247.304688 85.894531 247.246094 83.851562 C 247.171875 81.804688 246.132812 80.199219 245.496094 79.386719 C 244.859375 78.574219 244.714844 78.457031 244.613281 77.921875 C 244.511719 77.371094 244.628906 76.820312 244.886719 75.707031 C 245.148438 74.574219 245.496094 72.777344 244.800781 70.835938 C 244.089844 68.910156 242.472656 67.761719 241.589844 67.242188 C 240.707031 66.734375 240.574219 66.675781 240.371094 66.34375 C 240.171875 65.996094 240.128906 65.5625 240.054688 64.460938 C 239.980469 63.359375 239.792969 61.460938 238.449219 59.878906 C 237.089844 58.300781 235.164062 57.851562 234.136719 57.691406 C 233.09375 57.53125 232.878906 57.488281 232.632812 57.300781 C 232.386719 57.113281 232.285156 56.851562 231.878906 55.878906 C 231.472656 54.894531 230.621094 53.125 228.769531 52.15625 C 226.929688 51.183594 225.019531 51.445312 223.964844 51.648438 C 222.894531 51.835938 222.503906 51.894531 222.171875 51.792969 C 221.835938 51.691406 221.738281 51.5625 221.042969 50.808594 C 220.347656 50.070312 218.871094 48.722656 216.816406 48.472656 C 214.761719 48.242188 213.113281 49.054688 212.101562 49.589844 C 211.101562 50.113281 210.625 50.359375 210.132812 50.371094 C 209.640625 50.402344 209.523438 50.316406 208.597656 49.867188 C 207.671875 49.429688 205.835938 48.765625 203.851562 49.214844 C 201.855469 49.648438 200.507812 50.867188 199.65625 51.664062 C 198.800781 52.472656 198.367188 52.894531 197.761719 53.125 C 197.152344 53.371094 196.890625 53.316406 195.851562 53.226562 C 194.792969 53.15625 192.929688 53.15625 191.164062 54.15625 C 190.886719 54.316406 190.640625 54.472656 190.410156 54.648438 C 189.585938 51.34375 188.71875 47.878906 187.226562 44.460938 C 187.226562 44.445312 187.210938 44.417969 187.199219 44.386719 C 183.625 36.792969 175.882812 31.96875 167.808594 31.589844 C 167.476562 31.578125 167.144531 31.5625 166.808594 31.5625 Z M 166.808594 31.5625 " fill-opacity="1" fill-rule="nonzero"/></g><path fill="#ffba5a" d="M 166.765625 37.285156 C 173.003906 37.375 179.339844 41.054688 182.046875 46.777344 C 182.378906 47.5625 182.683594 48.386719 182.957031 49.214844 L 170.269531 71.546875 C 169.445312 72.90625 169.90625 74.691406 171.296875 75.472656 C 172.683594 76.269531 174.449219 75.761719 175.203125 74.355469 L 185.113281 56.910156 C 185.460938 58.226562 185.808594 59.5625 186.199219 60.910156 C 187.167969 64.488281 188.125 68.082031 189.09375 71.675781 C 189.0625 71.707031 189.050781 71.734375 189.035156 71.761719 L 176.316406 94.140625 C 175.476562 95.5 175.941406 97.296875 177.328125 98.082031 C 178.71875 98.878906 180.5 98.371094 181.25 96.949219 L 191.175781 79.472656 C 193.507812 88.199219 195.851562 96.9375 198.179688 105.660156 C 197.773438 105.675781 197.371094 105.777344 197.007812 105.949219 L 189.035156 109.878906 L 181.078125 105.949219 C 180.28125 105.558594 179.355469 105.558594 178.574219 105.949219 L 170.601562 109.878906 L 163.09375 106.167969 C 158.78125 89.949219 154.351562 73.792969 150.15625 57.589844 C 148.449219 49.519531 153.773438 40.460938 161.527344 38.140625 C 161.574219 38.125 161.617188 38.113281 161.660156 38.097656 C 163.292969 37.519531 165.03125 37.273438 166.765625 37.285156 Z M 166.765625 37.285156 " fill-opacity="1" fill-rule="nonzero"/><path fill="#2eb872" d="M 94.117188 41.375 C 94.027344 41.359375 93.957031 41.386719 93.871094 41.417969 C 93.625 41.476562 93.464844 41.402344 93.203125 42.5625 C 92.945312 43.722656 92.988281 45.96875 93.839844 49.171875 C 94.074219 50.039062 94.347656 50.9375 94.664062 51.835938 C 95.578125 54.445312 92.640625 56.691406 90.382812 55.125 C 89.558594 54.5625 88.734375 54.023438 87.921875 53.546875 C 85.058594 51.894531 82.902344 51.285156 81.714844 51.242188 C 80.53125 51.183594 80.558594 51.371094 80.429688 51.574219 C 80.3125 51.792969 80.152344 51.851562 80.789062 52.851562 C 81.410156 53.867188 83.019531 55.429688 85.882812 57.082031 C 88.371094 58.515625 91.339844 59.777344 93.871094 60.515625 C 96.386719 61.269531 98.703125 61.15625 98.601562 61.199219 C 98.773438 61.140625 98.949219 61.082031 99.121094 61.054688 C 99.296875 60.996094 99.46875 60.953125 99.644531 60.921875 C 99.542969 60.9375 101.582031 59.863281 103.40625 57.964844 C 105.230469 56.054688 107.167969 53.472656 108.601562 50.980469 C 110.25 48.125 110.855469 45.953125 110.914062 44.777344 C 110.957031 43.589844 110.785156 43.621094 110.566406 43.488281 C 110.367188 43.375 110.292969 43.214844 109.292969 43.835938 C 108.296875 44.472656 106.734375 46.082031 105.082031 48.953125 C 104.605469 49.765625 104.15625 50.648438 103.722656 51.546875 C 102.550781 54.039062 98.875 53.5625 98.371094 50.851562 C 98.195312 49.910156 97.992188 48.980469 97.761719 48.113281 C 96.910156 44.921875 95.808594 42.953125 95.011719 42.082031 C 94.507812 41.53125 94.273438 41.386719 94.117188 41.375 Z M 215.917969 54.125 C 215.671875 54.140625 215.398438 54.269531 214.746094 54.617188 C 213.863281 55.082031 212.433594 55.9375 210.449219 56.054688 C 208.46875 56.15625 206.917969 55.359375 206.183594 55.011719 C 205.429688 54.664062 205.574219 54.648438 205.082031 54.75 C 204.574219 54.867188 204.316406 55.082031 203.5625 55.792969 C 202.808594 56.503906 201.667969 57.707031 199.816406 58.429688 C 197.976562 59.140625 196.285156 58.964844 195.417969 58.894531 C 194.546875 58.835938 194.535156 58.777344 193.957031 59.097656 C 193.664062 59.269531 193.507812 59.414062 193.304688 59.648438 C 193.101562 59.878906 192.898438 60.199219 192.625 60.648438 C 192.492188 60.851562 192.347656 61.082031 192.191406 61.328125 C 195.15625 72.414062 198.121094 83.5 201.089844 94.589844 C 202.347656 92.414062 203.589844 90.242188 204.851562 88.050781 L 200.207031 70.503906 C 199.683594 68.660156 201.089844 66.835938 203 66.894531 C 204.273438 66.921875 205.371094 67.808594 205.675781 69.039062 L 208.875 81.066406 C 211.128906 77.15625 213.371094 73.242188 215.628906 69.328125 C 216.136719 68.429688 217.089844 67.863281 218.132812 67.878906 C 220.320312 67.894531 221.664062 70.285156 220.550781 72.167969 C 218.25 76.167969 215.949219 80.152344 213.648438 84.152344 L 226.003906 80.804688 C 226.238281 80.734375 226.496094 80.703125 226.757812 80.703125 C 230.113281 80.660156 230.738281 85.472656 227.480469 86.300781 L 209.640625 91.125 C 207.484375 94.878906 205.328125 98.617188 203.171875 102.355469 C 203.722656 104.429688 204.285156 106.5 204.835938 108.574219 L 207.46875 109.878906 L 215.425781 105.949219 C 216.222656 105.558594 217.148438 105.558594 217.945312 105.949219 L 225.902344 109.878906 L 233.863281 105.949219 C 234.425781 105.675781 235.046875 105.601562 235.65625 105.71875 C 235.65625 104.71875 235.683594 103.285156 236.351562 101.675781 C 237.117188 99.835938 238.289062 98.675781 239 97.921875 C 239.707031 97.152344 239.96875 96.863281 240.140625 96.183594 C 240.316406 95.488281 240.257812 95.429688 239.980469 94.574219 C 239.707031 93.71875 239.144531 92.140625 239.375 90.167969 C 239.605469 88.199219 240.445312 86.777344 240.9375 85.851562 C 241.429688 84.9375 241.589844 84.601562 241.574219 84.023438 C 241.558594 83.445312 241.546875 83.558594 241.023438 82.894531 C 240.519531 82.242188 239.402344 80.921875 239.027344 78.964844 C 238.664062 77.007812 239.128906 75.414062 239.359375 74.429688 C 239.578125 73.445312 239.605469 73.183594 239.476562 72.792969 C 239.332031 72.414062 239.445312 72.574219 238.738281 72.15625 C 238.015625 71.75 236.480469 70.921875 235.46875 69.199219 C 234.46875 67.460938 234.453125 65.761719 234.398438 64.820312 C 234.339844 63.878906 234.308594 63.777344 234.136719 63.574219 C 233.964844 63.371094 234.09375 63.445312 233.238281 63.300781 C 232.398438 63.167969 230.679688 62.996094 229.101562 61.734375 C 227.523438 60.472656 226.960938 58.835938 226.628906 58.023438 C 226.292969 57.214844 226.351562 57.300781 226.136719 57.183594 C 225.917969 57.066406 225.890625 57.066406 224.992188 57.226562 C 224.082031 57.402344 222.445312 57.808594 220.519531 57.214844 C 218.597656 56.632812 217.46875 55.300781 216.890625 54.691406 C 216.324219 54.082031 216.511719 54.167969 216.164062 54.125 C 216.078125 54.113281 215.992188 54.113281 215.917969 54.113281 Z M 279.527344 189.367188 L 273.726562 200.191406 L 285.316406 200.191406 Z M 271.828125 298.566406 L 287.210938 298.566406 L 287.210938 205.875 L 271.828125 205.875 Z M 271.828125 298.566406 " fill-opacity="1" fill-rule="nonzero"/><path fill="#a3de83" d="M 140.75 52.765625 C 140.359375 52.777344 140.246094 52.851562 139.464844 53.519531 C 138.667969 54.183594 137.363281 55.445312 135.28125 55.910156 C 133.199219 56.386719 131.460938 55.777344 130.566406 55.503906 C 129.667969 55.226562 129.753906 55.199219 129.304688 55.386719 C 128.855469 55.574219 128.65625 55.835938 128.0625 56.765625 C 127.46875 57.691406 126.601562 59.242188 124.820312 60.402344 C 123.039062 61.5625 121.203125 61.648438 120.277344 61.71875 C 119.351562 61.792969 119.351562 61.71875 118.875 62.167969 C 118.382812 62.605469 118.238281 63.023438 117.902344 64.113281 C 117.628906 65.011719 117.296875 66.300781 116.472656 67.632812 C 116.617188 67.851562 116.761719 68.066406 116.890625 68.285156 L 116.90625 68.300781 C 120.421875 74.039062 122.402344 80.34375 124.066406 86.472656 C 125.355469 86.050781 126.703125 85.820312 128.0625 85.777344 C 127.886719 85.285156 127.730469 84.777344 127.597656 84.269531 C 126.800781 81.152344 126.917969 77.574219 129.074219 74.75 C 129.636719 73.996094 130.519531 73.558594 131.460938 73.605469 C 133.777344 73.691406 135.019531 76.371094 133.589844 78.199219 C 133.15625 78.777344 132.894531 79.605469 132.851562 80.574219 C 133.964844 78.503906 135.570312 76.691406 137.566406 75.371094 C 137.597656 75.355469 137.609375 75.34375 137.640625 75.328125 C 140.289062 73.675781 143.195312 73.210938 146.019531 73.515625 C 146.902344 73.605469 147.769531 73.777344 148.609375 74.007812 C 147.277344 68.980469 145.945312 63.953125 144.628906 58.910156 C 144.628906 58.867188 144.613281 58.820312 144.601562 58.777344 C 144.324219 57.472656 144.179688 56.15625 144.152344 54.835938 C 143.136719 54.359375 142.414062 53.75 141.921875 53.371094 C 141.140625 52.765625 141.140625 52.75 140.75 52.765625 Z M 229.710938 180.511719 L 276.691406 180.511719 L 276.691406 173.078125 L 229.710938 173.078125 Z M 229.710938 180.511719 " fill-opacity="1" fill-rule="nonzero"/><path fill="#ff7043" d="M 104.984375 66.109375 C 107.761719 66.226562 110.351562 68.429688 112.042969 71.242188 C 112.042969 71.242188 112.042969 71.257812 112.058594 71.257812 C 114.113281 74.605469 115.617188 78.3125 116.875 82.210938 L 108.121094 84.558594 C 106.558594 84.921875 105.605469 86.515625 106.023438 88.066406 C 106.445312 89.617188 108.050781 90.515625 109.582031 90.050781 L 118.496094 87.660156 C 118.671875 88.269531 118.828125 88.878906 119.003906 89.5 C 117.859375 90.617188 116.90625 91.964844 116.253906 93.546875 C 116.253906 93.558594 116.238281 93.558594 116.238281 93.574219 C 114.417969 98.109375 114.691406 103.285156 116.789062 107.632812 L 114.460938 108.253906 C 114.027344 108.371094 113.636719 108.585938 113.300781 108.890625 L 107.355469 105.949219 C 106.921875 105.746094 106.457031 105.644531 105.980469 105.660156 C 105.589844 105.675781 105.199219 105.777344 104.851562 105.949219 L 100.09375 108.296875 C 99.773438 107.386719 99.457031 106.472656 99.152344 105.542969 L 107.703125 103.253906 C 110.945312 102.429688 110.335938 97.632812 106.980469 97.660156 C 106.734375 97.660156 106.472656 97.703125 106.226562 97.761719 L 97.402344 100.140625 C 95.519531 94.050781 93.984375 87.921875 93.246094 81.734375 L 101.351562 79.558594 C 104.59375 78.734375 103.984375 73.953125 100.640625 73.964844 C 100.382812 73.964844 100.136719 73.996094 99.890625 74.066406 L 93.058594 75.894531 C 93.246094 73.257812 93.914062 70.894531 95.503906 69.257812 C 97.660156 67.3125 101.003906 66.402344 104.433594 66.109375 C 104.621094 66.097656 104.808594 66.097656 104.984375 66.109375 Z M 104.984375 66.109375 " fill-opacity="1" fill-rule="nonzero"/><path fill="#fa4659" d="M 144.265625 79.167969 C 146.320312 79.140625 148.550781 79.792969 150.445312 80.878906 C 152.804688 89.675781 155.175781 98.457031 157.507812 107.253906 L 152.183594 109.878906 L 144.210938 105.949219 C 143.429688 105.558594 142.5 105.558594 141.707031 105.949219 L 133.746094 109.878906 L 126.164062 106.140625 C 125.6875 105.820312 125.125 105.644531 124.558594 105.644531 C 124.300781 105.644531 124.039062 105.6875 123.792969 105.761719 L 122.433594 106.125 C 120.625 103.109375 120.21875 98.921875 121.507812 95.703125 C 123.113281 91.863281 129.132812 90.253906 132.734375 92.355469 C 135.121094 94.039062 138.175781 91.457031 136.929688 88.820312 C 136.308594 85.675781 137.945312 81.964844 140.664062 80.140625 C 141.71875 79.503906 142.964844 79.199219 144.265625 79.167969 Z M 144.265625 79.167969 " fill-opacity="1" fill-rule="nonzero"/><path fill="#d3a869" d="M 106.097656 111.660156 L 99.714844 114.804688 L 99.714844 298.566406 L 213.503906 298.566406 L 213.503906 203.078125 C 213.503906 203.0625 213.503906 203.046875 213.503906 203.035156 C 213.503906 202.960938 213.503906 202.886719 213.519531 202.816406 C 213.519531 202.742188 213.53125 202.671875 213.546875 202.613281 C 213.546875 202.585938 213.546875 202.554688 213.546875 202.539062 C 213.5625 202.453125 213.589844 202.382812 213.605469 202.308594 C 213.605469 202.292969 213.605469 202.28125 213.617188 202.265625 C 213.632812 202.191406 213.664062 202.121094 213.691406 202.035156 C 213.691406 202.019531 213.707031 202.003906 213.707031 202.003906 C 213.75 201.886719 213.792969 201.785156 213.835938 201.683594 L 224.035156 182.65625 L 224.035156 170.238281 C 224.035156 168.671875 225.308594 167.398438 226.871094 167.398438 L 241.5 167.398438 L 241.5 114.804688 L 235.121094 111.660156 L 227.148438 115.585938 C 226.367188 115.980469 225.441406 115.980469 224.644531 115.585938 L 216.6875 111.660156 L 208.726562 115.585938 C 207.933594 115.980469 207.007812 115.980469 206.226562 115.585938 L 198.253906 111.660156 L 190.292969 115.585938 C 189.5 115.980469 188.574219 115.980469 187.792969 115.585938 L 179.820312 111.660156 L 171.859375 115.585938 C 171.066406 115.980469 170.152344 115.980469 169.355469 115.585938 L 161.398438 111.660156 L 153.425781 115.585938 C 152.644531 115.980469 151.71875 115.980469 150.921875 115.585938 L 142.964844 111.660156 L 135.007812 115.585938 C 134.210938 115.980469 133.285156 115.980469 132.488281 115.585938 L 124.53125 111.660156 L 116.574219 115.585938 C 115.777344 115.980469 114.851562 115.980469 114.054688 115.585938 Z M 110.207031 246.261719 L 130.898438 246.261719 C 134.644531 246.292969 134.644531 251.914062 130.898438 251.945312 L 110.207031 251.945312 C 108.628906 251.957031 107.339844 250.683594 107.339844 249.105469 C 107.339844 247.523438 108.628906 246.25 110.207031 246.261719 Z M 151.601562 263.304688 C 153.210938 263.261719 154.527344 264.550781 154.511719 266.160156 C 154.511719 267.769531 153.179688 269.046875 151.574219 268.988281 L 110.207031 268.988281 C 108.601562 269.046875 107.269531 267.753906 107.269531 266.148438 C 107.269531 264.539062 108.601562 263.25 110.207031 263.304688 L 151.574219 263.304688 C 151.589844 263.304688 151.601562 263.304688 151.601562 263.304688 Z M 110.207031 280.347656 L 169.617188 280.347656 C 173.363281 280.378906 173.363281 285.988281 169.617188 286.03125 L 110.207031 286.03125 C 106.457031 285.988281 106.457031 280.378906 110.207031 280.347656 Z M 110.207031 280.347656 " fill-opacity="1" fill-rule="nonzero"/><path fill="#feffe4" d="M 228.566406 186.195312 L 221.085938 200.191406 L 267.300781 200.191406 L 274.78125 186.195312 Z M 219.175781 205.875 L 219.175781 298.566406 L 266.15625 298.566406 L 266.15625 205.875 Z M 219.175781 205.875 " fill-opacity="1" fill-rule="nonzero"/></svg>