<svg xmlns="http://www.w3.org/2000/svg" xmlns:xlink="http://www.w3.org/1999/xlink" width="500" zoomAndPan="magnify" viewBox="0 0 375 374.999991" height="500" preserveAspectRatio="xMidYMid meet" version="1.0"><defs><clipPath id="d4816d486a"><path d="M 69 56 L 335 56 L 335 319 L 69 319 Z M 69 56 " clip-rule="nonzero"/></clipPath><clipPath id="9e751719d3"><path d="M 195.554688 0 L 374.554688 189.410156 L 178.253906 374.921875 L -0.746094 185.507812 Z M 195.554688 0 " clip-rule="nonzero"/></clipPath><clipPath id="d976cd7542"><path d="M 195.554688 0 L 374.554688 189.410156 L 178.253906 374.921875 L -0.746094 185.507812 Z M 195.554688 0 " clip-rule="nonzero"/></clipPath><clipPath id="d2a99c10ae"><path d="M 49 100 L 225 100 L 225 275 L 49 275 Z M 49 100 " clip-rule="nonzero"/></clipPath><clipPath id="98db3261d5"><path d="M 85.0625 70.949219 L 253.066406 135.730469 L 188.289062 303.730469 L 20.285156 238.953125 Z M 85.0625 70.949219 " clip-rule="nonzero"/></clipPath><clipPath id="0472734cc2"><path d="M 85.0625 70.949219 L 253.066406 135.730469 L 188.289062 303.730469 L 20.285156 238.953125 Z M 85.0625 70.949219 " clip-rule="nonzero"/></clipPath><clipPath id="105de975db"><path d="M 46 97 L 227 97 L 227 278 L 46 278 Z M 46 97 " clip-rule="nonzero"/></clipPath><clipPath id="a3989d5120"><path d="M 85.0625 70.949219 L 253.066406 135.730469 L 188.289062 303.730469 L 20.285156 238.953125 Z M 85.0625 70.949219 " clip-rule="nonzero"/></clipPath><clipPath id="2602891834"><path d="M 85.0625 70.949219 L 253.066406 135.730469 L 188.289062 303.730469 L 20.285156 238.953125 Z M 85.0625 70.949219 " clip-rule="nonzero"/></clipPath><clipPath id="86823fd784"><path d="M 113 138 L 137 138 L 137 176 L 113 176 Z M 113 138 " clip-rule="nonzero"/></clipPath><clipPath id="cf4f83349e"><path d="M 85.0625 70.949219 L 253.066406 135.730469 L 188.289062 303.730469 L 20.285156 238.953125 Z M 85.0625 70.949219 " clip-rule="nonzero"/></clipPath><clipPath id="c9d78a4431"><path d="M 85.0625 70.949219 L 253.066406 135.730469 L 188.289062 303.730469 L 20.285156 238.953125 Z M 85.0625 70.949219 " clip-rule="nonzero"/></clipPath><clipPath id="23dc6cccf3"><path d="M 156 154 L 179 154 L 179 193 L 156 193 Z M 156 154 " clip-rule="nonzero"/></clipPath><clipPath id="2d24f92c0e"><path d="M 85.0625 70.949219 L 253.066406 135.730469 L 188.289062 303.730469 L 20.285156 238.953125 Z M 85.0625 70.949219 " clip-rule="nonzero"/></clipPath><clipPath id="77a6612660"><path d="M 85.0625 70.949219 L 253.066406 135.730469 L 188.289062 303.730469 L 20.285156 238.953125 Z M 85.0625 70.949219 " clip-rule="nonzero"/></clipPath><clipPath id="7ee82a27d9"><path d="M 77 179 L 119 179 L 119 246 L 77 246 Z M 77 179 " clip-rule="nonzero"/></clipPath><clipPath id="00ba5df655"><path d="M 85.0625 70.949219 L 253.066406 135.730469 L 188.289062 303.730469 L 20.285156 238.953125 Z M 85.0625 70.949219 " clip-rule="nonzero"/></clipPath><clipPath id="c881719c48"><path d="M 85.0625 70.949219 L 253.066406 135.730469 L 188.289062 303.730469 L 20.285156 238.953125 Z M 85.0625 70.949219 " clip-rule="nonzero"/></clipPath><clipPath id="c06ab02cf1"><path d="M 72 177 L 88 177 L 88 184 L 72 184 Z M 72 177 " clip-rule="nonzero"/></clipPath><clipPath id="578bdaab17"><path d="M 85.0625 70.949219 L 253.066406 135.730469 L 188.289062 303.730469 L 20.285156 238.953125 Z M 85.0625 70.949219 " clip-rule="nonzero"/></clipPath><clipPath id="92e60b186e"><path d="M 85.0625 70.949219 L 253.066406 135.730469 L 188.289062 303.730469 L 20.285156 238.953125 Z M 85.0625 70.949219 " clip-rule="nonzero"/></clipPath><clipPath id="15040427fe"><path d="M 113 219 L 186 219 L 186 249 L 113 249 Z M 113 219 " clip-rule="nonzero"/></clipPath><clipPath id="4d039f7756"><path d="M 85.0625 70.949219 L 253.066406 135.730469 L 188.289062 303.730469 L 20.285156 238.953125 Z M 85.0625 70.949219 " clip-rule="nonzero"/></clipPath><clipPath id="055c4496cf"><path d="M 85.0625 70.949219 L 253.066406 135.730469 L 188.289062 303.730469 L 20.285156 238.953125 Z M 85.0625 70.949219 " clip-rule="nonzero"/></clipPath><clipPath id="fac55ae84b"><path d="M 177 215 L 191 215 L 191 227 L 177 227 Z M 177 215 " clip-rule="nonzero"/></clipPath><clipPath id="4947a173da"><path d="M 85.0625 70.949219 L 253.066406 135.730469 L 188.289062 303.730469 L 20.285156 238.953125 Z M 85.0625 70.949219 " clip-rule="nonzero"/></clipPath><clipPath id="7411a1bd8e"><path d="M 85.0625 70.949219 L 253.066406 135.730469 L 188.289062 303.730469 L 20.285156 238.953125 Z M 85.0625 70.949219 " clip-rule="nonzero"/></clipPath><clipPath id="847ff9e0ab"><path d="M 210 225 L 289 225 L 289 316 L 210 316 Z M 210 225 " clip-rule="nonzero"/></clipPath><clipPath id="f8ca388c6f"><path d="M 187.507812 234.523438 L 261.738281 203.246094 L 302.214844 299.3125 L 227.984375 330.589844 Z M 187.507812 234.523438 " clip-rule="nonzero"/></clipPath><clipPath id="2ffb03eb01"><path d="M 187.507812 234.523438 L 261.738281 203.246094 L 302.214844 299.3125 L 227.984375 330.589844 Z M 187.507812 234.523438 " clip-rule="nonzero"/></clipPath><clipPath id="549628b899"><path d="M 204 221 L 294 221 L 294 322 L 204 322 Z M 204 221 " clip-rule="nonzero"/></clipPath><clipPath id="131002edb9"><path d="M 187.507812 234.523438 L 261.738281 203.246094 L 302.214844 299.3125 L 227.984375 330.589844 Z M 187.507812 234.523438 " clip-rule="nonzero"/></clipPath><clipPath id="cace7cce29"><path d="M 187.507812 234.523438 L 261.738281 203.246094 L 302.214844 299.3125 L 227.984375 330.589844 Z M 187.507812 234.523438 " clip-rule="nonzero"/></clipPath></defs><g clip-path="url(#d4816d486a)"><g clip-path="url(#9e751719d3)"><g clip-path="url(#d976cd7542)"><path fill="#d96824" d="M 334.039062 167.097656 C 338.222656 190.703125 328.222656 216.859375 314.132812 237.988281 C 300.152344 259.007812 282.082031 275.003906 262.527344 288.273438 C 242.964844 301.769531 222.03125 312.65625 198.742188 316.660156 C 175.449219 320.660156 150.015625 318.007812 127.859375 307.269531 C 105.476562 296.523438 86.589844 277.921875 77.105469 255.640625 C 67.84375 233.367188 67.984375 207.410156 70.480469 181.402344 C 72.859375 155.503906 77.367188 129.542969 90.789062 108.398438 C 104.105469 87.136719 126.222656 70.574219 150.988281 62.355469 C 175.757812 54.136719 203.171875 54.265625 227.316406 62.257812 C 251.355469 70.136719 272.234375 85.988281 291.800781 104.386719 C 311.484375 122.671875 329.738281 143.605469 334.039062 167.097656 Z M 334.039062 167.097656 " fill-opacity="1" fill-rule="nonzero"/></g></g></g><g clip-path="url(#d2a99c10ae)"><g clip-path="url(#98db3261d5)"><g clip-path="url(#0472734cc2)"><path fill="#e3ac47" d="M 218.183594 218.796875 C 217.667969 220.132812 217.121094 221.453125 216.542969 222.757812 C 215.964844 224.066406 215.351562 225.355469 214.710938 226.632812 C 214.066406 227.910156 213.394531 229.171875 212.691406 230.414062 C 211.984375 231.660156 211.25 232.882812 210.488281 234.089844 C 209.722656 235.300781 208.929688 236.488281 208.105469 237.65625 C 207.28125 238.824219 206.433594 239.972656 205.550781 241.101562 C 204.671875 242.226562 203.765625 243.332031 202.832031 244.414062 C 201.898438 245.496094 200.941406 246.554688 199.953125 247.589844 C 198.96875 248.625 197.960938 249.636719 196.925781 250.621094 C 195.890625 251.609375 194.832031 252.566406 193.75 253.5 C 192.667969 254.433594 191.5625 255.34375 190.433594 256.222656 C 189.308594 257.101562 188.160156 257.953125 186.992188 258.777344 C 185.824219 259.597656 184.636719 260.394531 183.429688 261.15625 C 182.21875 261.921875 180.996094 262.65625 179.75 263.363281 C 178.507812 264.066406 177.246094 264.742188 175.972656 265.382812 C 174.695312 266.027344 173.402344 266.636719 172.097656 267.21875 C 170.789062 267.796875 169.46875 268.34375 168.136719 268.859375 C 166.800781 269.371094 165.457031 269.855469 164.101562 270.304688 C 162.742188 270.75 161.375 271.167969 159.996094 271.546875 C 158.621094 271.929688 157.234375 272.277344 155.839844 272.589844 C 154.445312 272.902344 153.042969 273.183594 151.636719 273.425781 C 150.226562 273.671875 148.8125 273.882812 147.394531 274.054688 C 145.976562 274.230469 144.554688 274.371094 143.128906 274.476562 C 141.703125 274.582031 140.277344 274.652344 138.847656 274.6875 C 137.417969 274.722656 135.988281 274.722656 134.5625 274.6875 C 133.132812 274.652344 131.703125 274.585938 130.277344 274.480469 C 128.851562 274.375 127.429688 274.234375 126.011719 274.058594 C 124.59375 273.886719 123.179688 273.675781 121.773438 273.429688 C 120.363281 273.1875 118.960938 272.910156 117.566406 272.59375 C 116.171875 272.28125 114.785156 271.933594 113.410156 271.554688 C 112.03125 271.171875 110.664062 270.757812 109.308594 270.3125 C 107.949219 269.863281 106.605469 269.382812 105.269531 268.867188 C 103.9375 268.351562 102.617188 267.804688 101.308594 267.226562 C 100.003906 266.648438 98.710938 266.039062 97.433594 265.394531 C 96.15625 264.753906 94.898438 264.078125 93.652344 263.375 C 92.410156 262.671875 91.183594 261.9375 89.976562 261.171875 C 88.769531 260.40625 87.582031 259.613281 86.410156 258.789062 C 85.242188 257.96875 84.09375 257.117188 82.96875 256.238281 C 81.839844 255.359375 80.734375 254.453125 79.652344 253.519531 C 78.570312 252.585938 77.511719 251.625 76.476562 250.640625 C 75.441406 249.652344 74.429688 248.644531 73.445312 247.609375 C 72.460938 246.574219 71.5 245.515625 70.566406 244.433594 C 69.632812 243.351562 68.726562 242.246094 67.847656 241.121094 C 66.964844 239.992188 66.113281 238.84375 65.292969 237.675781 C 64.46875 236.507812 63.675781 235.320312 62.910156 234.113281 C 62.144531 232.90625 61.410156 231.679688 60.707031 230.4375 C 60 229.191406 59.328125 227.933594 58.683594 226.65625 C 58.042969 225.378906 57.429688 224.085938 56.851562 222.78125 C 56.269531 221.472656 55.722656 220.152344 55.210938 218.820312 C 54.695312 217.488281 54.214844 216.140625 53.765625 214.785156 C 53.316406 213.425781 52.902344 212.058594 52.519531 210.683594 C 52.136719 209.304688 51.792969 207.917969 51.476562 206.523438 C 51.164062 205.128906 50.886719 203.726562 50.640625 202.320312 C 50.394531 200.910156 50.1875 199.5 50.011719 198.078125 C 49.835938 196.660156 49.695312 195.238281 49.589844 193.8125 C 49.484375 192.386719 49.414062 190.960938 49.378906 189.53125 C 49.34375 188.101562 49.34375 186.675781 49.378906 185.246094 C 49.414062 183.816406 49.484375 182.390625 49.589844 180.964844 C 49.695312 179.539062 49.832031 178.117188 50.007812 176.695312 C 50.183594 175.277344 50.390625 173.863281 50.636719 172.457031 C 50.878906 171.046875 51.160156 169.648438 51.472656 168.253906 C 51.785156 166.859375 52.132812 165.472656 52.511719 164.09375 C 52.894531 162.714844 53.308594 161.347656 53.757812 159.992188 C 54.207031 158.632812 54.6875 157.289062 55.199219 155.953125 C 55.714844 154.621094 56.261719 153.300781 56.839844 151.996094 C 57.417969 150.6875 58.03125 149.394531 58.671875 148.117188 C 59.316406 146.84375 59.988281 145.582031 60.691406 144.335938 C 61.398438 143.09375 62.132812 141.867188 62.898438 140.660156 C 63.660156 139.453125 64.453125 138.265625 65.277344 137.097656 C 66.101562 135.925781 66.953125 134.777344 67.832031 133.652344 C 68.710938 132.523438 69.617188 131.421875 70.550781 130.339844 C 71.484375 129.253906 72.441406 128.195312 73.429688 127.160156 C 74.414062 126.125 75.425781 125.117188 76.460938 124.128906 C 77.492188 123.144531 78.554688 122.183594 79.636719 121.25 C 80.71875 120.316406 81.820312 119.410156 82.949219 118.53125 C 84.074219 117.652344 85.222656 116.800781 86.390625 115.976562 C 87.558594 115.152344 88.746094 114.359375 89.957031 113.59375 C 91.164062 112.828125 92.386719 112.09375 93.632812 111.390625 C 94.875 110.683594 96.136719 110.011719 97.410156 109.367188 C 98.6875 108.726562 99.980469 108.113281 101.285156 107.535156 C 102.59375 106.957031 103.914062 106.410156 105.246094 105.894531 C 106.582031 105.378906 107.925781 104.898438 109.285156 104.449219 C 110.640625 104 112.007812 103.585938 113.386719 103.203125 C 114.761719 102.824219 116.148438 102.476562 117.542969 102.164062 C 118.9375 101.847656 120.339844 101.570312 121.746094 101.324219 C 123.15625 101.082031 124.570312 100.871094 125.988281 100.695312 C 127.40625 100.519531 128.828125 100.378906 130.253906 100.273438 C 131.679688 100.167969 133.105469 100.097656 134.535156 100.0625 C 135.964844 100.027344 137.394531 100.027344 138.824219 100.0625 C 140.25 100.097656 141.679688 100.167969 143.105469 100.273438 C 144.53125 100.378906 145.953125 100.519531 147.371094 100.691406 C 148.789062 100.867188 150.203125 101.078125 151.609375 101.320312 C 153.019531 101.566406 154.421875 101.84375 155.816406 102.15625 C 157.210938 102.46875 158.597656 102.816406 159.972656 103.199219 C 161.351562 103.578125 162.71875 103.992188 164.078125 104.441406 C 165.433594 104.890625 166.777344 105.371094 168.113281 105.886719 C 169.445312 106.398438 170.765625 106.945312 172.074219 107.523438 C 173.378906 108.105469 174.671875 108.714844 175.949219 109.359375 C 177.226562 110 178.484375 110.671875 179.730469 111.378906 C 180.972656 112.082031 182.199219 112.816406 183.40625 113.582031 C 184.613281 114.34375 185.804688 115.140625 186.972656 115.960938 C 188.140625 116.785156 189.289062 117.636719 190.414062 118.515625 C 191.542969 119.394531 192.648438 120.300781 193.730469 121.234375 C 194.8125 122.167969 195.871094 123.128906 196.90625 124.113281 C 197.941406 125.097656 198.953125 126.109375 199.9375 127.144531 C 200.921875 128.179688 201.882812 129.238281 202.816406 130.320312 C 203.75 131.402344 204.65625 132.507812 205.539062 133.632812 C 206.417969 134.757812 207.269531 135.90625 208.089844 137.074219 C 208.914062 138.242188 209.707031 139.433594 210.472656 140.640625 C 211.238281 141.847656 211.972656 143.074219 212.679688 144.316406 C 213.382812 145.558594 214.054688 146.820312 214.699219 148.097656 C 215.34375 149.375 215.953125 150.664062 216.53125 151.972656 C 217.113281 153.277344 217.660156 154.597656 218.171875 155.933594 C 218.6875 157.265625 219.167969 158.609375 219.617188 159.96875 C 220.066406 161.324219 220.480469 162.691406 220.863281 164.070312 C 221.246094 165.449219 221.59375 166.832031 221.90625 168.226562 C 222.21875 169.621094 222.496094 171.023438 222.742188 172.433594 C 222.988281 173.839844 223.195312 175.253906 223.371094 176.671875 C 223.546875 178.089844 223.6875 179.511719 223.792969 180.9375 C 223.898438 182.363281 223.96875 183.792969 224.003906 185.21875 C 224.039062 186.648438 224.039062 188.078125 224.003906 189.507812 C 223.96875 190.9375 223.898438 192.363281 223.792969 193.789062 C 223.691406 195.214844 223.550781 196.636719 223.375 198.054688 C 223.199219 199.472656 222.992188 200.886719 222.746094 202.296875 C 222.503906 203.703125 222.222656 205.105469 221.910156 206.5 C 221.597656 207.894531 221.25 209.28125 220.871094 210.660156 C 220.488281 212.035156 220.074219 213.402344 219.625 214.761719 C 219.179688 216.117188 218.695312 217.464844 218.183594 218.796875 Z M 218.183594 218.796875 " fill-opacity="1" fill-rule="nonzero"/></g></g></g><g clip-path="url(#105de975db)"><g clip-path="url(#a3989d5120)"><g clip-path="url(#2602891834)"><path stroke-linecap="round" transform="matrix(1.267946, 0.488894, -0.488894, 1.267946, 85.063857, 70.950281)" fill="none" stroke-linejoin="round" d="M 130.540605 66.269398 C 130.540251 67.323157 130.514305 68.374461 130.462766 69.423311 C 130.412262 70.474842 130.332448 71.522271 130.230758 72.568892 C 130.126385 73.616547 129.999102 74.660714 129.845192 75.699743 C 129.689634 76.742488 129.509098 77.77638 129.30565 78.806783 C 129.100555 79.840902 128.87048 80.866168 128.613779 81.886297 C 128.357077 82.906426 128.079113 83.91935 127.77184 84.92817 C 127.466215 85.933275 127.136645 86.932208 126.782096 87.922288 C 126.427546 88.912368 126.0507 89.892561 125.646193 90.864935 C 125.244368 91.836274 124.820246 92.797726 124.370111 93.747643 C 123.92101 94.700242 123.447543 95.63759 122.95178 96.56505 C 122.456017 97.49251 121.937956 98.410083 121.395531 99.312404 C 120.855787 100.213691 120.292713 101.102409 119.708989 101.977524 C 119.124231 102.849956 118.519858 103.711467 117.892768 104.55401 C 117.26403 105.400269 116.618973 106.228175 115.950584 107.043511 C 115.283844 107.855131 114.596454 108.653148 113.891712 109.430129 C 113.185321 110.210826 112.458895 110.971521 111.717184 111.716544 C 110.971756 112.45992 110.21001 113.184941 109.431944 113.891609 C 108.650163 114.596629 107.855778 115.284943 107.04404 115.952221 C 106.228586 116.617852 105.400528 117.266776 104.554084 117.891982 C 103.711355 118.518837 102.851273 119.124655 101.97652 119.708404 C 101.101767 120.292153 100.213377 120.856513 99.311963 121.395088 C 98.408902 121.937378 97.493851 122.456565 96.565777 122.949965 C 95.638737 123.446048 94.699708 123.919026 93.748689 124.3689 C 92.797671 124.818774 91.837345 125.24451 90.86503 125.647142 C 89.892715 126.049774 88.911093 126.428267 87.922846 126.781589 C 86.931916 127.135944 85.932714 127.468843 84.925852 127.773888 C 83.91899 128.078932 82.905503 128.358805 81.885391 128.613505 C 80.866313 128.870887 79.839576 129.100414 78.808895 129.303735 C 77.776567 129.510772 76.740295 129.691603 75.699046 129.843545 C 74.658831 129.998169 73.614674 130.126587 72.570289 130.230446 C 71.522188 130.332657 70.473859 130.410309 69.425304 130.463403 C 68.373033 130.514849 67.323217 130.540702 66.269458 130.540349 C 65.21838 130.538961 64.167076 130.513015 63.115544 130.462511 C 62.066695 130.410972 61.017619 130.334874 59.969963 130.230502 C 58.923342 130.128812 57.880824 129.997812 56.839112 129.844937 C 55.800083 129.691027 54.763509 129.511524 53.732072 129.305394 C 52.700635 129.099265 51.675369 128.86919 50.652558 128.613523 C 49.633463 128.359504 48.619506 128.078858 47.614401 127.773232 C 46.606615 127.468641 45.607681 127.139071 44.617601 126.784522 C 43.627521 126.429973 42.646294 126.050445 41.674955 125.64862 C 40.702581 125.244112 39.741129 124.81999 38.791212 124.369855 C 37.841295 123.91972 36.901266 123.447288 35.973806 122.951524 C 35.046345 122.455761 34.131455 121.936667 33.230167 121.396923 C 32.325164 120.855532 31.436446 120.292457 30.564014 119.707699 C 29.688899 119.123975 28.830071 118.518568 27.984845 117.892512 C 27.13962 117.266456 26.31068 116.618717 25.49906 115.951977 C 24.683724 115.283588 23.889423 114.597847 23.108727 113.891456 C 22.330712 113.184031 21.567335 112.458639 20.824993 111.715894 C 20.078936 110.971501 19.353914 110.209754 18.649928 109.430655 C 17.94326 108.652589 17.256594 107.854488 16.589316 107.04275 C 15.921004 106.22833 15.274761 105.399239 14.647907 104.55651 C 14.020018 103.7111 13.416882 102.849984 12.830451 101.976265 C 12.246703 101.101512 11.685024 100.212087 11.143768 99.311708 C 10.601477 98.408646 10.086007 97.495243 9.58889 96.565521 C 9.092808 95.638481 8.619829 94.699452 8.169955 93.748434 C 7.720081 92.797415 7.294345 91.837089 6.891713 90.864775 C 6.489081 89.89246 6.111622 88.913519 5.757267 87.92259 C 5.402911 86.931661 5.073728 85.934106 4.768684 84.927244 C 4.463639 83.920382 4.181085 82.90793 3.925351 81.885135 C 3.670651 80.865023 3.438441 79.83932 3.23512 78.808639 C 3.028083 77.776311 2.850968 76.741687 2.696344 75.701473 C 2.54172 74.661258 2.413303 73.6171 2.308409 72.570033 C 2.206198 71.521932 2.128546 70.473604 2.078134 69.424015 C 2.026688 68.371743 2.000835 67.321927 1.998506 66.269202 C 1.999894 65.218125 2.02584 64.16682 2.077379 63.117971 C 2.127884 62.066439 2.206663 61.016329 2.308353 59.969708 C 2.41376 58.924734 2.541043 57.880568 2.693919 56.838857 C 2.850511 55.798793 3.030013 54.762219 3.236143 53.730782 C 3.43959 52.700379 3.669665 51.675113 3.926366 50.654984 C 4.182033 49.632173 4.46268 48.618216 4.768305 47.613111 C 5.072896 46.605325 5.4035 45.609073 5.758049 44.618993 C 6.111564 43.626231 6.488411 42.646039 6.892918 41.673665 C 7.294743 40.702325 7.722581 39.742521 8.171682 38.789922 C 8.619135 37.84104 9.09425 36.899976 9.590013 35.972516 C 10.085776 35.045056 10.602189 34.131199 11.144614 33.228878 C 11.684358 32.32759 12.247432 31.438872 12.831156 30.563758 C 13.41488 29.688644 14.020287 28.829815 14.649025 27.983555 C 15.275081 27.13833 15.920138 26.310425 16.589561 25.49777 C 17.255267 24.683468 17.943691 23.888134 18.647399 23.108471 C 19.354824 22.330456 20.080216 21.567079 20.822961 20.824738 C 21.568389 20.081362 22.330135 19.35634 23.108201 18.649673 C 23.888948 17.941971 24.684367 17.256339 25.498787 16.588026 C 26.310525 15.920748 27.139617 15.274506 27.985027 14.646617 C 28.82879 14.022445 29.688872 13.416626 30.563625 12.832878 C 31.437344 12.246447 32.326768 11.684768 33.227148 11.143512 C 34.131243 10.603903 35.046294 10.084717 35.973334 9.588634 C 36.900374 9.092552 37.839403 8.619574 38.790422 8.169699 C 39.74144 7.719825 40.701766 7.294089 41.674081 6.891458 C 42.646396 6.488826 43.628018 6.110332 44.618947 5.755977 C 45.607195 5.402656 46.607431 5.072439 47.614293 4.767394 C 48.621155 4.462349 49.634642 4.182477 50.65372 3.925095 C 51.673832 3.670395 52.700569 3.440868 53.730216 3.234864 C 54.763578 3.030509 55.79985 2.849679 56.840065 2.695055 C 57.880279 2.54043 58.924437 2.412013 59.969856 2.310836 C 61.016923 2.205943 62.065251 2.12829 63.117523 2.076844 C 64.167112 2.026433 65.216928 2.000579 66.270688 2.000933 C 67.320731 1.999638 68.372035 2.025584 69.423566 2.076089 C 70.47345 2.13031 71.522526 2.206407 72.570182 2.31078 C 73.616803 2.41247 74.658287 2.540787 75.701033 2.696345 C 76.740062 2.850255 77.776636 3.029758 78.808073 3.235887 C 79.838476 3.439335 80.867458 3.671057 81.886553 3.925076 C 82.906682 4.181778 83.92064 4.462424 84.925744 4.768049 C 85.933531 5.07264 86.932464 5.402211 87.922544 5.75676 C 88.912624 6.111309 89.893851 6.490837 90.86519 6.892662 C 91.83653 7.294487 92.799016 7.721291 93.748933 8.171426 C 94.69885 8.621562 95.638879 9.093994 96.56634 9.589757 C 97.4938 10.085521 98.40869 10.604615 99.31266 11.143324 C 100.213947 11.683068 101.102665 12.246143 101.975097 12.8309 C 102.850212 13.414624 103.710075 14.022713 104.5553 14.648769 C 105.400525 15.274825 106.229465 15.922564 107.043767 16.588271 C 107.855387 17.255011 108.650722 17.943435 109.431418 18.649826 C 110.212115 19.356216 110.971776 20.07996 111.715152 20.825388 C 112.460175 21.567099 113.185197 22.328845 113.890217 23.110627 C 114.596885 23.888693 115.282517 24.684111 115.950829 25.498532 C 116.618107 26.31027 117.26435 27.139361 117.892238 27.984772 C 118.520127 28.830182 119.124911 29.687582 119.70866 30.562335 C 120.292408 31.437088 120.854087 32.326512 121.396377 33.229574 C 121.937634 34.129953 122.454138 35.046038 122.950221 35.973078 C 123.446303 36.900118 123.919282 37.839147 124.369156 38.790166 C 124.81903 39.741184 125.2458 40.704192 125.647398 41.673825 C 126.05003 42.64614 126.428523 43.627762 126.782878 44.618692 C 127.137234 45.609621 127.466417 46.607176 127.771461 47.614037 C 128.079188 48.619865 128.35906 49.633352 128.61376 50.653464 C 128.86846 51.673576 129.10067 52.69928 129.305025 53.732642 C 129.511028 54.762289 129.689177 55.799594 129.843801 56.839809 C 129.998425 57.880024 130.126842 58.924182 130.231736 59.971249 C 130.332913 61.016668 130.410565 62.064996 130.462011 63.117267 C 130.515105 64.165822 130.53931 65.219354 130.540605 66.269398 Z M 130.540605 66.269398 " stroke="#000000" stroke-width="4" stroke-opacity="1" stroke-miterlimit="4"/></g></g></g><g clip-path="url(#86823fd784)"><g clip-path="url(#cf4f83349e)"><g clip-path="url(#c9d78a4431)"><path fill="#000000" d="M 133.390625 160.164062 C 132.917969 161.386719 132.398438 162.578125 131.828125 163.734375 C 131.257812 164.894531 130.648438 165.996094 130.003906 167.046875 C 129.355469 168.09375 128.683594 169.066406 127.984375 169.964844 C 127.285156 170.863281 126.574219 171.671875 125.851562 172.386719 C 125.128906 173.101562 124.40625 173.707031 123.683594 174.210938 C 122.960938 174.714844 122.257812 175.101562 121.566406 175.371094 C 120.875 175.644531 120.214844 175.792969 119.582031 175.824219 C 118.949219 175.851562 118.355469 175.761719 117.804688 175.550781 C 117.25 175.335938 116.75 175.007812 116.300781 174.558594 C 115.851562 174.109375 115.460938 173.554688 115.132812 172.890625 C 114.804688 172.226562 114.539062 171.464844 114.34375 170.609375 C 114.144531 169.753906 114.019531 168.816406 113.960938 167.800781 C 113.90625 166.785156 113.917969 165.710938 114.003906 164.574219 C 114.089844 163.441406 114.246094 162.265625 114.46875 161.054688 C 114.695312 159.84375 114.984375 158.617188 115.339844 157.378906 C 115.695312 156.136719 116.105469 154.90625 116.578125 153.679688 C 117.050781 152.457031 117.570312 151.269531 118.140625 150.109375 C 118.710938 148.953125 119.320312 147.847656 119.964844 146.800781 C 120.613281 145.75 121.285156 144.777344 121.984375 143.878906 C 122.683594 142.980469 123.394531 142.175781 124.117188 141.460938 C 124.84375 140.746094 125.566406 140.136719 126.285156 139.636719 C 127.007812 139.132812 127.710938 138.746094 128.402344 138.472656 C 129.09375 138.203125 129.753906 138.050781 130.390625 138.023438 C 131.023438 137.992188 131.613281 138.082031 132.167969 138.296875 C 132.71875 138.507812 133.21875 138.839844 133.667969 139.285156 C 134.117188 139.734375 134.507812 140.289062 134.835938 140.953125 C 135.167969 141.621094 135.429688 142.378906 135.625 143.238281 C 135.824219 144.09375 135.949219 145.027344 136.007812 146.042969 C 136.0625 147.058594 136.050781 148.132812 135.964844 149.269531 C 135.878906 150.40625 135.722656 151.578125 135.5 152.789062 C 135.277344 154 134.984375 155.226562 134.632812 156.46875 C 134.277344 157.710938 133.863281 158.941406 133.390625 160.164062 Z M 133.390625 160.164062 " fill-opacity="1" fill-rule="nonzero"/></g></g></g><g clip-path="url(#23dc6cccf3)"><g clip-path="url(#2d24f92c0e)"><g clip-path="url(#77a6612660)"><path fill="#000000" d="M 175.539062 176.5625 C 175.066406 177.785156 174.546875 178.976562 173.976562 180.132812 C 173.40625 181.289062 172.796875 182.394531 172.152344 183.441406 C 171.503906 184.492188 170.832031 185.464844 170.132812 186.363281 C 169.433594 187.261719 168.722656 188.066406 168 188.78125 C 167.277344 189.496094 166.554688 190.105469 165.832031 190.609375 C 165.109375 191.109375 164.40625 191.496094 163.714844 191.769531 C 163.023438 192.039062 162.363281 192.191406 161.730469 192.21875 C 161.097656 192.25 160.503906 192.160156 159.953125 191.945312 C 159.398438 191.734375 158.898438 191.402344 158.449219 190.957031 C 158 190.507812 157.609375 189.953125 157.28125 189.289062 C 156.953125 188.625 156.6875 187.863281 156.492188 187.007812 C 156.292969 186.148438 156.167969 185.214844 156.109375 184.199219 C 156.054688 183.183594 156.066406 182.109375 156.152344 180.972656 C 156.238281 179.835938 156.394531 178.664062 156.617188 177.453125 C 156.84375 176.242188 157.132812 175.015625 157.488281 173.773438 C 157.84375 172.535156 158.253906 171.300781 158.726562 170.078125 C 159.199219 168.855469 159.71875 167.664062 160.289062 166.507812 C 160.859375 165.347656 161.46875 164.246094 162.113281 163.199219 C 162.761719 162.148438 163.433594 161.175781 164.132812 160.277344 C 164.832031 159.378906 165.542969 158.570312 166.265625 157.855469 C 166.992188 157.144531 167.714844 156.535156 168.433594 156.03125 C 169.15625 155.53125 169.859375 155.144531 170.550781 154.871094 C 171.242188 154.601562 171.902344 154.449219 172.535156 154.417969 C 173.171875 154.390625 173.761719 154.480469 174.316406 154.695312 C 174.867188 154.90625 175.367188 155.238281 175.816406 155.683594 C 176.265625 156.132812 176.65625 156.6875 176.984375 157.351562 C 177.316406 158.015625 177.578125 158.777344 177.773438 159.632812 C 177.972656 160.488281 178.097656 161.425781 178.15625 162.441406 C 178.210938 163.457031 178.199219 164.53125 178.113281 165.667969 C 178.027344 166.800781 177.871094 167.976562 177.648438 169.1875 C 177.421875 170.398438 177.132812 171.625 176.78125 172.867188 C 176.425781 174.105469 176.011719 175.339844 175.539062 176.5625 Z M 175.539062 176.5625 " fill-opacity="1" fill-rule="nonzero"/></g></g></g><g clip-path="url(#7ee82a27d9)"><g clip-path="url(#00ba5df655)"><g clip-path="url(#c881719c48)"><path stroke-linecap="round" transform="matrix(1.267946, 0.488894, -0.488894, 1.267946, -15.126557, -125.429641)" fill="none" stroke-linejoin="round" d="M 146.820788 185.900856 C 146.820788 185.900856 154.820387 216.898925 187.45914 217.980378 " stroke="#000000" stroke-width="4" stroke-opacity="1" stroke-miterlimit="4"/></g></g></g><g clip-path="url(#c06ab02cf1)"><g clip-path="url(#578bdaab17)"><g clip-path="url(#92e60b186e)"><path stroke-linecap="round" transform="matrix(1.267946, 0.488894, -0.488894, 1.267946, -15.126557, -125.429641)" fill="none" stroke-linejoin="round" d="M 142.779704 186.118881 C 142.779704 186.118881 144.689056 184.590916 149.500075 184.060616 " stroke="#000000" stroke-width="4" stroke-opacity="1" stroke-miterlimit="4"/></g></g></g><g clip-path="url(#15040427fe)"><g clip-path="url(#4d039f7756)"><g clip-path="url(#055c4496cf)"><path stroke-linecap="round" transform="matrix(1.267946, 0.488894, -0.488894, 1.267946, -15.126557, -125.429641)" fill="none" stroke-linejoin="round" d="M 228.090873 185.899267 C 228.090873 185.899267 220.08968 216.899216 187.45914 217.980378 " stroke="#000000" stroke-width="4" stroke-opacity="1" stroke-miterlimit="4"/></g></g></g><g clip-path="url(#fac55ae84b)"><g clip-path="url(#4947a173da)"><g clip-path="url(#7411a1bd8e)"><path stroke-linecap="round" transform="matrix(1.267946, 0.488894, -0.488894, 1.267946, -15.126557, -125.429641)" fill="none" stroke-linejoin="round" d="M 232.12861 186.120002 C 232.12861 186.120002 230.219579 184.588639 225.409527 184.058782 " stroke="#000000" stroke-width="4" stroke-opacity="1" stroke-miterlimit="4"/></g></g></g><g clip-path="url(#847ff9e0ab)"><g clip-path="url(#f8ca388c6f)"><g clip-path="url(#2ffb03eb01)"><path fill="#eee7d4" d="M 252.414062 315.519531 L 248.449219 306.109375 L 244.265625 307.871094 L 240.742188 299.507812 L 236.558594 301.269531 L 233.035156 292.902344 L 228.851562 294.667969 L 224.886719 285.257812 L 219.660156 287.457031 L 217.898438 283.277344 L 213.714844 285.039062 L 210.191406 276.675781 L 219.601562 272.710938 L 221.363281 276.890625 L 225.546875 275.128906 L 230.832031 287.675781 L 235.015625 285.914062 L 211.226562 229.453125 L 219.589844 225.929688 L 236.328125 265.660156 L 240.511719 263.898438 L 233.023438 246.125 L 242.433594 242.160156 L 249.921875 259.933594 L 254.101562 258.171875 L 248.375 244.582031 L 256.742188 241.054688 L 264.230469 258.832031 L 268.410156 257.066406 L 262.683594 243.476562 L 267.914062 241.273438 L 270.113281 246.5 L 274.296875 244.738281 L 287.074219 275.058594 L 282.890625 276.820312 L 288.175781 289.367188 L 282.949219 291.570312 L 286.914062 300.980469 Z M 252.414062 315.519531 " fill-opacity="1" fill-rule="nonzero"/></g></g></g><g clip-path="url(#549628b899)"><g clip-path="url(#131002edb9)"><g clip-path="url(#cace7cce29)"><path fill="#000000" d="M 249.992188 321.460938 L 244.265625 307.871094 L 240.082031 309.632812 L 236.558594 301.269531 L 232.375 303.03125 L 228.851562 294.667969 L 223.625 296.867188 L 219.660156 287.457031 L 215.476562 289.222656 L 213.714844 285.039062 L 209.535156 286.800781 L 204.246094 274.253906 L 217.839844 268.527344 L 219.601562 272.710938 L 223.785156 270.949219 L 207.042969 231.21875 L 211.226562 229.453125 L 209.464844 225.273438 L 217.828125 221.75 L 219.589844 225.929688 L 223.769531 224.167969 L 231.261719 241.941406 L 240.671875 237.976562 L 242.433594 242.160156 L 254.980469 236.875 L 256.742188 241.054688 L 266.148438 237.089844 L 267.914062 241.273438 L 272.09375 239.511719 L 274.296875 244.738281 L 278.480469 242.976562 L 291.253906 273.296875 L 287.074219 275.058594 L 292.359375 287.605469 L 288.175781 289.367188 L 293.902344 302.960938 Z M 286.914062 300.980469 L 282.949219 291.570312 L 288.175781 289.367188 L 282.890625 276.820312 L 287.074219 275.058594 L 274.296875 244.738281 L 270.113281 246.5 L 267.914062 241.273438 L 262.683594 243.476562 L 268.410156 257.066406 L 264.230469 258.832031 L 256.742188 241.054688 L 248.375 244.582031 L 254.101562 258.171875 L 249.921875 259.933594 L 242.433594 242.160156 L 233.023438 246.125 L 240.511719 263.898438 L 236.328125 265.660156 L 219.589844 225.929688 L 211.226562 229.453125 L 235.015625 285.914062 L 230.832031 287.675781 L 225.546875 275.128906 L 221.363281 276.890625 L 219.601562 272.710938 L 210.191406 276.675781 L 213.714844 285.039062 L 217.898438 283.277344 L 219.660156 287.457031 L 224.886719 285.257812 L 228.851562 294.667969 L 233.035156 292.902344 L 236.558594 301.269531 L 240.742188 299.507812 L 244.265625 307.871094 L 248.449219 306.109375 L 252.414062 315.519531 Z M 286.914062 300.980469 " fill-opacity="1" fill-rule="nonzero"/></g></g></g></svg>